{"asset":{"version":"2.0","generator":"VECTARY"},"scene":0,"nodes":[{"translation":[0.1553389025085756,0.0005852438262066944,0.025529930329560954],"scale":[0.001,0.001,0.001],"rotation":[0,0,0,1],"name":"Web3dtester","children":[1,2,3,4,5,6,7]},{"translation":[0,0,0],"scale":[1,1,1],"rotation":[0,0,0,1],"name":"Art_building:pCube7","mesh":0},{"translation":[0,0,0],"scale":[1,1,1],"rotation":[0,0,0,1],"name":"Art_building:pCube9","mesh":1},{"translation":[0,0,0],"scale":[1,1,1],"rotation":[0,0,0,1],"name":"Art_building:pCube12","mesh":2},{"translation":[0,0,0],"scale":[1,1,1],"rotation":[0,0,0,1],"name":"Art_building:pCube13","mesh":3},{"translation":[0,0,0],"scale":[1,1,1],"rotation":[0,0,0,1],"name":"Art_building:pasted__pCube7 Art_building:group25","mesh":4},{"translation":[0,0,0],"scale":[1,1,1],"rotation":[0,0,0,1],"name":"Art_building:pasted__pCube9 Art_building:group26","mesh":5},{"translation":[0,0,0],"scale":[1,1,1],"rotation":[0,0,0,1],"name":"Art_building:pasted__pasted__pCube9 Art_building:pasted__group26 Art_building:group27","mesh":6}],"materials":[{"pbrMetallicRoughness":{"baseColorFactor":[1,1,1,1],"metallicFactor":0,"roughnessFactor":0.2},"name":"Art_building:pCube7 material","emissiveFactor":[0,0,0],"alphaMode":"OPAQUE","doubleSided":false},{"pbrMetallicRoughness":{"baseColorFactor":[1,1,1,1],"metallicFactor":0,"roughnessFactor":0.2},"name":"Art_building:pCube9 material","emissiveFactor":[0,0,0],"alphaMode":"OPAQUE","doubleSided":false},{"pbrMetallicRoughness":{"baseColorFactor":[1,1,1,1],"metallicFactor":0,"roughnessFactor":0.2},"name":"Art_building:pCube12 material","emissiveFactor":[0,0,0],"alphaMode":"OPAQUE","doubleSided":false},{"pbrMetallicRoughness":{"baseColorFactor":[1,1,1,1],"metallicFactor":0,"roughnessFactor":0.2},"name":"Art_building:pCube13 material","emissiveFactor":[0,0,0],"alphaMode":"OPAQUE","doubleSided":false},{"pbrMetallicRoughness":{"baseColorFactor":[1,1,1,1],"metallicFactor":0,"roughnessFactor":0.2},"name":"Art_building:pasted__pCube7 Art_building:group25 material","emissiveFactor":[0,0,0],"alphaMode":"OPAQUE","doubleSided":false},{"pbrMetallicRoughness":{"baseColorFactor":[1,1,1,1],"metallicFactor":0,"roughnessFactor":0.2},"name":"Art_building:pasted__pCube9 Art_building:group26 material","emissiveFactor":[0,0,0],"alphaMode":"OPAQUE","doubleSided":false},{"pbrMetallicRoughness":{"baseColorFactor":[1,1,1,1],"metallicFactor":0,"roughnessFactor":0.2},"name":"Art_building:pasted__pasted__pCube9 Art_building:pasted__group26 Art_building:group27 material","emissiveFactor":[0,0,0],"alphaMode":"OPAQUE","doubleSided":false}],"meshes":[{"primitives":[{"mode":4,"attributes":{"POSITION":1,"NORMAL":2,"TEXCOORD_0":3},"material":0,"indices":0}]},{"primitives":[{"mode":4,"attributes":{"POSITION":5,"NORMAL":6,"TEXCOORD_0":7},"material":1,"indices":4}]},{"primitives":[{"mode":4,"attributes":{"POSITION":9,"NORMAL":10,"TEXCOORD_0":11},"material":2,"indices":8}]},{"primitives":[{"mode":4,"attributes":{"POSITION":13,"NORMAL":14,"TEXCOORD_0":15},"material":3,"indices":12}]},{"primitives":[{"mode":4,"attributes":{"POSITION":17,"NORMAL":18,"TEXCOORD_0":19},"material":4,"indices":16}]},{"primitives":[{"mode":4,"attributes":{"POSITION":21,"NORMAL":22,"TEXCOORD_0":23},"material":5,"indices":20}]},{"primitives":[{"mode":4,"attributes":{"POSITION":25,"NORMAL":26,"TEXCOORD_0":27},"material":6,"indices":24}]}],"accessors":[{"bufferView":0,"byteOffset":0,"componentType":5125,"count":36,"type":"SCALAR"},{"bufferView":1,"byteOffset":0,"componentType":5126,"count":36,"max":[-32.93989562988281,115.96715545654297,61.838443756103516],"min":[-37.21556091308594,25.77883529663086,57.34872817993164],"type":"VEC3"},{"bufferView":2,"byteOffset":0,"componentType":5126,"count":36,"type":"VEC3"},{"bufferView":3,"byteOffset":0,"componentType":5126,"count":36,"type":"VEC2"},{"bufferView":4,"byteOffset":0,"componentType":5125,"count":36,"type":"SCALAR"},{"bufferView":5,"byteOffset":0,"componentType":5126,"count":36,"max":[110.38151550292969,116.64977264404297,58.410194396972656],"min":[92.92288208007812,97.5364990234375,57.714134216308594],"type":"VEC3"},{"bufferView":6,"byteOffset":0,"componentType":5126,"count":36,"type":"VEC3"},{"bufferView":7,"byteOffset":0,"componentType":5126,"count":36,"type":"VEC2"},{"bufferView":8,"byteOffset":0,"componentType":5125,"count":5382,"type":"SCALAR"},{"bufferView":9,"byteOffset":0,"componentType":5126,"count":5382,"max":[114.08887481689453,133.04458618164062,59.11241149902344],"min":[-307.6307678222656,-0.2096409946680069,-279.9924621582031],"type":"VEC3"},{"bufferView":10,"byteOffset":0,"componentType":5126,"count":5382,"type":"VEC3"},{"bufferView":11,"byteOffset":0,"componentType":5126,"count":5382,"type":"VEC2"},{"bufferView":12,"byteOffset":0,"componentType":5125,"count":36,"type":"SCALAR"},{"bufferView":13,"byteOffset":0,"componentType":5126,"count":36,"max":[-44.54189682006836,124.94267272949219,-125.86737823486328],"min":[-71.00189971923828,27.227781295776367,-134.67501831054688],"type":"VEC3"},{"bufferView":14,"byteOffset":0,"componentType":5126,"count":36,"type":"VEC3"},{"bufferView":15,"byteOffset":0,"componentType":5126,"count":36,"type":"VEC2"},{"bufferView":16,"byteOffset":0,"componentType":5125,"count":36,"type":"SCALAR"},{"bufferView":17,"byteOffset":0,"componentType":5126,"count":36,"max":[7.934861183166504,115.96715545654297,61.838443756103516],"min":[3.659195899963379,25.77883529663086,57.34872817993164],"type":"VEC3"},{"bufferView":18,"byteOffset":0,"componentType":5126,"count":36,"type":"VEC3"},{"bufferView":19,"byteOffset":0,"componentType":5126,"count":36,"type":"VEC2"},{"bufferView":20,"byteOffset":0,"componentType":5125,"count":36,"type":"SCALAR"},{"bufferView":21,"byteOffset":0,"componentType":5126,"count":36,"max":[87.3403091430664,94.3254165649414,58.410194396972656],"min":[69.88167572021484,75.21214294433594,57.714134216308594],"type":"VEC3"},{"bufferView":22,"byteOffset":0,"componentType":5126,"count":36,"type":"VEC3"},{"bufferView":23,"byteOffset":0,"componentType":5126,"count":36,"type":"VEC2"},{"bufferView":24,"byteOffset":0,"componentType":5125,"count":36,"type":"SCALAR"},{"bufferView":25,"byteOffset":0,"componentType":5126,"count":36,"max":[110.38738250732422,72.38200378417969,58.410194396972656],"min":[92.92875671386719,53.26873016357422,57.714134216308594],"type":"VEC3"},{"bufferView":26,"byteOffset":0,"componentType":5126,"count":36,"type":"VEC3"},{"bufferView":27,"byteOffset":0,"componentType":5126,"count":36,"type":"VEC2"}],"bufferViews":[{"buffer":0,"byteOffset":0,"byteLength":144,"target":34963},{"buffer":0,"byteOffset":144,"byteLength":432,"target":34962},{"buffer":0,"byteOffset":576,"byteLength":432,"target":34962},{"buffer":0,"byteOffset":1008,"byteLength":288,"target":34962},{"buffer":0,"byteOffset":1296,"byteLength":144,"target":34963},{"buffer":0,"byteOffset":1440,"byteLength":432,"target":34962},{"buffer":0,"byteOffset":1872,"byteLength":432,"target":34962},{"buffer":0,"byteOffset":2304,"byteLength":288,"target":34962},{"buffer":0,"byteOffset":2592,"byteLength":21528,"target":34963},{"buffer":0,"byteOffset":24120,"byteLength":64584,"target":34962},{"buffer":0,"byteOffset":88704,"byteLength":64584,"target":34962},{"buffer":0,"byteOffset":153288,"byteLength":43056,"target":34962},{"buffer":0,"byteOffset":196344,"byteLength":144,"target":34963},{"buffer":0,"byteOffset":196488,"byteLength":432,"target":34962},{"buffer":0,"byteOffset":196920,"byteLength":432,"target":34962},{"buffer":0,"byteOffset":197352,"byteLength":288,"target":34962},{"buffer":0,"byteOffset":197640,"byteLength":144,"target":34963},{"buffer":0,"byteOffset":197784,"byteLength":432,"target":34962},{"buffer":0,"byteOffset":198216,"byteLength":432,"target":34962},{"buffer":0,"byteOffset":198648,"byteLength":288,"target":34962},{"buffer":0,"byteOffset":198936,"byteLength":144,"target":34963},{"buffer":0,"byteOffset":199080,"byteLength":432,"target":34962},{"buffer":0,"byteOffset":199512,"byteLength":432,"target":34962},{"buffer":0,"byteOffset":199944,"byteLength":288,"target":34962},{"buffer":0,"byteOffset":200232,"byteLength":144,"target":34963},{"buffer":0,"byteOffset":200376,"byteLength":432,"target":34962},{"buffer":0,"byteOffset":200808,"byteLength":432,"target":34962},{"buffer":0,"byteOffset":201240,"byteLength":288,"target":34962}],"scenes":[{"nodes":[0],"name":"Project Name"}],"buffers":[{"byteLength":201528,"uri":"ProjectName.bin"}]}